<?xml version="1.0" encoding="utf-8"?>
<!-- Generator: Adobe Illustrator 22.0.1, SVG Export Plug-In . SVG Version: 6.00 Build 0)  -->
<svg version="1.1"
	 id="Layer_1" xmlns:cc="http://creativecommons.org/ns#" xmlns:dc="http://purl.org/dc/elements/1.1/" xmlns:rdf="http://www.w3.org/1999/02/22-rdf-syntax-ns#" xmlns:svg="http://www.w3.org/2000/svg"
	 xmlns="http://www.w3.org/2000/svg" xmlns:xlink="http://www.w3.org/1999/xlink" x="0px" y="0px" width="167px" height="198.3px"
	 viewBox="0 0 167 198.3" style="enable-background:new 0 0 167 198.3;" xml:space="preserve">
<style type="text/css">
	.st0{fill:#FFFFFF;}
	.st1{fill:#3897F0;stroke:#FCFCFC;stroke-width:2;stroke-miterlimit:10;}
	.st2{fill:#262626;}
	.st3{fill:none;}
	.st4{fill:#EAE2DE;}
	.st5{display:none;fill:none;stroke:#3897F0;stroke-width:5;stroke-linecap:round;stroke-miterlimit:10;}
	.st6{display:none;fill:#FFFFFF;stroke:#3897F0;stroke-width:5;stroke-miterlimit:10;}
	.st7{fill:#3897F0;}
	.st8{fill:none;stroke:#3897F0;stroke-width:10;stroke-miterlimit:10;}
	.st9{fill:none;stroke:#3897F0;stroke-width:4;stroke-linecap:round;stroke-miterlimit:10;}
</style>
<circle class="st0" cx="84.3" cy="84.3" r="82.5"/>
<polygon class="st1" points="84.2,195.3 100.5,158.1 68.1,158.1 "/>
<line class="st5" x1="84.3" y1="105.3" x2="84.3" y2="24.8"/>
<circle class="st6" cx="84.3" cy="84.3" r="9.3"/>
<circle class="st7" cx="84.3" cy="24.6" r="3.5"/>
<circle class="st7" cx="63.9" cy="28.2" r="3.5"/>
<circle class="st7" cx="45.9" cy="38.5" r="3.5"/>
<circle class="st7" cx="32.6" cy="54.4" r="3.5"/>
<circle class="st7" cx="25.5" cy="73.9" r="3.5"/>
<circle class="st7" cx="104.7" cy="28.2" r="3.5"/>
<circle class="st7" cx="122.6" cy="38.5" r="3.5"/>
<circle class="st7" cx="135.9" cy="54.4" r="3.5"/>
<circle class="st7" cx="143" cy="73.9" r="3.5"/>
<circle class="st7" cx="143" cy="94.6" r="3.5"/>
<circle class="st8" cx="84.3" cy="84.3" r="75"/>
<circle class="st7" cx="25.5" cy="94.6" r="3.5"/>
<path class="st9" d="M100.6,139.3H67.9c-2.8,0-5-2.2-5-5v0c0-2.8,2.2-5,5-5h32.7c2.8,0,5,2.3,5,5v0
	C105.6,137,103.4,139.3,100.6,139.3z"/>
<circle class="st8" cx="84.3" cy="84.3" r="75"/>
</svg>
